<?xml version="1.0" standalone="no"?>
<!DOCTYPE svg PUBLIC "-//W3C//DTD SVG 20010904//EN"
 "http://www.w3.org/TR/2001/REC-SVG-20010904/DTD/svg10.dtd">
<svg version="1.0" xmlns="http://www.w3.org/2000/svg"
 width="158.000000pt" height="158.000000pt" viewBox="0 0 158.000000 158.000000"
 preserveAspectRatio="xMidYMid meet">
<metadata>
Created by potrace 1.14, written by Peter Selinger 2001-2017
</metadata>
<g transform="translate(0.000000,158.000000) scale(0.100000,-0.100000)"
fill="#000000" stroke="none">
<path d="M235 1566 c-44 -20 -84 -64 -95 -107 -7 -25 -10 -266 -8 -691 3 -731
-1 -686 76 -738 l36 -25 546 0 546 0 36 25 c78 53 73 4 73 760 0 756 5 707
-73 760 l-36 25 -535 2 c-429 2 -542 0 -566 -11z m1064 -52 c17 -4 42 -18 56
-32 l25 -25 0 -667 0 -667 -25 -25 c-14 -14 -39 -28 -56 -32 -41 -8 -977 -8
-1018 0 -17 4 -42 18 -56 32 l-25 25 0 667 0 667 26 26 c14 14 35 28 47 30 35
7 992 8 1026 1z"/>
<path d="M337 1044 c-13 -13 -7 -101 7 -113 22 -18 46 -2 46 30 l0 29 70 0 70
0 0 -164 0 -165 -26 -3 c-38 -4 -55 -35 -30 -54 27 -19 145 -19 172 0 25 19 8
50 -30 54 l-26 3 0 165 0 165 68 -3 c64 -3 67 -4 70 -30 4 -30 28 -44 49 -27
9 8 13 28 11 63 l-3 51 -221 3 c-121 1 -223 -1 -227 -4z"/>
<path d="M930 1035 c-10 -12 -10 -18 0 -30 11 -13 38 -15 164 -13 l151 3 0 25
0 25 -151 3 c-126 2 -153 0 -164 -13z"/>
<path d="M926 834 c-14 -37 10 -44 159 -44 114 0 145 3 155 15 7 8 10 22 6 30
-4 12 -31 15 -160 15 -133 0 -155 -2 -160 -16z"/>
<path d="M932 648 c-7 -7 -12 -18 -12 -25 0 -26 41 -34 176 -31 115 3 139 6
147 20 8 12 7 21 -2 32 -11 13 -38 16 -155 16 -97 0 -146 -4 -154 -12z"/>
<path d="M340 445 c-7 -8 -10 -22 -6 -30 5 -13 63 -15 456 -15 393 0 451 2
456 15 4 8 1 22 -6 30 -19 22 -881 22 -900 0z"/>
<path d="M334 245 c-4 -8 -4 -22 0 -30 5 -13 62 -15 458 -13 l453 3 0 25 0 25
-453 3 c-396 2 -453 0 -458 -13z"/>
</g>
</svg>
